grf
version=1
nRows=19
nColumns=37
inDegrees=no
endheader
time	ground_force_1_vx	ground_force_1_vy	ground_force_1_vz	ground_force_1_px	ground_force_1_py	ground_force_1_pz	ground_moment_1_mx	ground_moment_1_my	ground_moment_1_mz	ground_force_2_vx	ground_force_2_vy	ground_force_2_vz	ground_force_2_px	ground_force_2_py	ground_force_2_pz	ground_moment_2_mx	ground_moment_2_my	ground_moment_2_mz	ground_force_3_vx	ground_force_3_vy	ground_force_3_vz	ground_force_3_px	ground_force_3_py	ground_force_3_pz	ground_moment_3_mx	ground_moment_3_my	ground_moment_3_mz	ground_force_4_vx	ground_force_4_vy	ground_force_4_vz	ground_force_4_px	ground_force_4_py	ground_force_4_pz	ground_moment_4_mx	ground_moment_4_my	ground_moment_4_mz
      0.00000000	      0.00000000	     -0.00000000	      0.00000000	      0.00000000	      0.00000000	      0.00000000	      0.00000000	      0.00000000	      0.00000000	      5.89906216	     33.29571533	   -600.03063965	   -359.68854699	  -1061.47900345	      0.00000000	     -0.00000000	      0.00000000	     40.06379774	     -7.54041839	    -19.08289081	   -213.11074829	   -306.30955381	   -794.30759081	      0.00000000	      0.00000000	     -0.00000000	   -543.17318164	      0.00000000	     -0.00000000	      0.00000000	      0.00000000	      0.00000000	      0.00000000	      0.00000000	      0.00000000	      0.00000000
      0.01000000	      0.00000000	     -0.00000000	      0.00000000	      0.00000000	      0.00000000	      0.00000000	      0.00000000	      0.00000000	      0.00000000	      6.51801395	     33.09559250	   -613.38409424	   -360.12316605	  -1061.34403884	      0.00000000	      0.00000000	      0.00000000	     26.86664223	     -6.31494917	    -17.91289274	   -200.84867859	   -309.77630946	   -797.56284871	      0.00000000	      0.00000000	     -0.00000000	   -868.57029850	      0.00000000	     -0.00000000	      0.00000000	      0.00000000	      0.00000000	      0.00000000	      0.00000000	      0.00000000	      0.00000000
      0.02000000	      0.00000000	     -0.00000000	      0.00000000	      0.00000000	      0.00000000	      0.00000000	      0.00000000	      0.00000000	      0.00000000	      6.59585810	     34.32092285	   -628.14862061	   -360.33615146	  -1061.81992933	      0.00000000	      0.00000000	      0.00000000	     60.54272924	     -5.75506927	    -16.52169749	   -193.38616943	   -310.07730214	   -793.41774395	      0.00000000	      0.00000000	      0.00000000	   -747.63663312	      0.00000000	     -0.00000000	      0.00000000	      0.00000000	      0.00000000	      0.00000000	      0.00000000	      0.00000000	      0.00000000
      0.03000000	      0.00000000	     -0.00000000	      0.00000000	      0.00000000	      0.00000000	      0.00000000	      0.00000000	      0.00000000	      0.00000000	      7.03606558	     35.10004807	   -640.24652100	   -360.69758553	  -1061.32417761	      0.00000000	      0.00000000	      0.00000000	     95.90380120	     -5.99293415	    -15.47310681	   -185.77081299	   -309.24390302	   -792.22904447	      0.00000000	      0.00000000	      0.00000000	   -703.17489249	      0.00000000	     -0.00000000	      0.00000000	      0.00000000	      0.00000000	      0.00000000	      0.00000000	      0.00000000	      0.00000000
      0.04000000	      0.00000000	     -0.00000000	      0.00000000	      0.00000000	      0.00000000	      0.00000000	      0.00000000	      0.00000000	      0.00000000	      7.38693619	     35.04577255	   -652.37567139	   -361.41149193	  -1062.44564090	      0.00000000	      0.00000000	      0.00000000	    124.97970252	     -6.39286934	    -14.84370939	   -177.10946655	   -308.94686831	   -796.90206956	      0.00000000	      0.00000000	     -0.00000000	  -1004.67590949	      0.00000000	     -0.00000000	      0.00000000	      0.00000000	      0.00000000	      0.00000000	      0.00000000	      0.00000000	      0.00000000
      0.05000000	      0.00000000	     -0.00000000	      0.00000000	      0.00000000	      0.00000000	      0.00000000	      0.00000000	      0.00000000	      0.00000000	      7.74947929	     35.08146286	   -659.74011230	   -361.67207102	  -1061.77020111	      0.00000000	      0.00000000	     -0.00000000	    -11.30463859	     -8.03234034	    -14.27942301	   -173.22456360	   -304.95299354	   -795.31618828	      0.00000000	      0.00000000	     -0.00000000	   -973.14617081	      0.00000000	     -0.00000000	      0.00000000	      0.00000000	      0.00000000	      0.00000000	      0.00000000	      0.00000000	      0.00000000
      0.06000000	      0.00000000	     -0.00000000	      0.00000000	      0.00000000	      0.00000000	      0.00000000	      0.00000000	      0.00000000	      0.00000000	      8.01698589	     36.32935715	   -666.19213867	   -362.28047918	  -1061.41603270	      0.00000000	      0.00000000	     -0.00000000	   -234.56624925	     -9.40334439	    -13.56674017	   -169.03523254	   -304.54282041	   -795.34620289	      0.00000000	      0.00000000	     -0.00000000	   -973.42511072	      0.00000000	     -0.00000000	      0.00000000	      0.00000000	      0.00000000	      0.00000000	      0.00000000	      0.00000000	      0.00000000
      0.07000000	      0.00000000	     -0.00000000	      0.00000000	      0.00000000	      0.00000000	      0.00000000	      0.00000000	      0.00000000	      0.00000000	      8.12420940	     35.86670685	   -673.13702393	   -362.23236096	  -1062.80470695	      0.00000000	      0.00000000	     -0.00000000	    -27.58540305	    -10.55658452	    -12.81251529	   -163.28689575	   -302.11004848	   -797.95158118	      0.00000000	      0.00000000	     -0.00000000	   -786.53102071	      0.00000000	     -0.00000000	      0.00000000	      0.00000000	      0.00000000	      0.00000000	      0.00000000	      0.00000000	      0.00000000
      0.08000000	      0.00000000	     -0.00000000	      0.00000000	      0.00000000	      0.00000000	      0.00000000	      0.00000000	      0.00000000	      0.00000000	      8.13650322	     36.17472458	   -675.63317871	   -363.00807167	  -1062.44431177	      0.00000000	      0.00000000	      0.00000000	     51.51771447	    -10.66913525	    -12.65966990	   -158.81706238	   -298.35735996	   -797.80723086	      0.00000000	      0.00000000	     -0.00000000	   -681.44139602	      0.00000000	     -0.00000000	      0.00000000	      0.00000000	      0.00000000	      0.00000000	      0.00000000	      0.00000000	      0.00000000
      0.09000000	      0.00000000	     -0.00000000	      0.00000000	      0.00000000	      0.00000000	      0.00000000	      0.00000000	      0.00000000	      0.00000000	      8.77967644	     35.91338730	   -676.57055664	   -363.40374844	  -1061.90399689	      0.00000000	      0.00000000	     -0.00000000	    -89.53188832	    -10.38518538	    -12.44136529	   -154.44352722	   -297.91668665	   -798.83677567	      0.00000000	      0.00000000	     -0.00000000	   -787.87545326	      0.00000000	     -0.00000000	      0.00000000	      0.00000000	      0.00000000	      0.00000000	      0.00000000	      0.00000000	      0.00000000
      0.10000000	      0.00000000	     -0.00000000	      0.00000000	      0.00000000	      0.00000000	      0.00000000	      0.00000000	      0.00000000	      0.00000000	      8.75512505	     36.28855896	   -677.39916992	   -363.85460244	  -1061.74126793	      0.00000000	     -0.00000000	      0.00000000	    106.48963316	    -10.29654702	    -11.83510500	   -152.67520142	   -296.66922860	   -794.46337835	      0.00000000	      0.00000000	     -0.00000000	   -837.95333824	      0.00000000	     -0.00000000	      0.00000000	      0.00000000	      0.00000000	      0.00000000	      0.00000000	      0.00000000	      0.00000000
      0.11000000	      0.00000000	     -0.00000000	      0.00000000	      0.00000000	      0.00000000	      0.00000000	      0.00000000	      0.00000000	      0.00000000	      9.20761204	     35.84302902	   -676.99597168	   -364.36942844	  -1061.94999721	      0.00000000	      0.00000000	      0.00000000	    262.45342825	     -9.75818735	    -11.51857482	   -148.53474426	   -297.08534728	   -794.65613044	      0.00000000	      0.00000000	     -0.00000000	   -914.35963055	      0.00000000	     -0.00000000	      0.00000000	      0.00000000	      0.00000000	      0.00000000	      0.00000000	      0.00000000	      0.00000000
      0.12000000	      0.00000000	     -0.00000000	      0.00000000	      0.00000000	      0.00000000	      0.00000000	      0.00000000	      0.00000000	      0.00000000	      8.42402458	     35.64579391	   -678.50909424	   -364.56416778	  -1063.04381447	      0.00000000	      0.00000000	     -0.00000000	    -18.61661283	     -9.30841737	    -11.42443957	   -144.87345886	   -297.38836755	   -797.38948082	      0.00000000	      0.00000000	     -0.00000000	   -705.90620315	      0.00000000	     -0.00000000	      0.00000000	      0.00000000	      0.00000000	      0.00000000	      0.00000000	      0.00000000	      0.00000000
      0.13000000	      0.00000000	     -0.00000000	      0.00000000	      0.00000000	      0.00000000	      0.00000000	      0.00000000	      0.00000000	      0.00000000	      8.85117531	     35.39121246	   -675.93542480	   -365.42240959	  -1062.73975302	      0.00000000	     -0.00000000	      0.00000000	     60.02985082	     -8.54767422	    -11.38097688	   -141.87928772	   -298.21536254	   -795.94797009	      0.00000000	      0.00000000	     -0.00000000	   -826.50303877	      0.00000000	     -0.00000000	      0.00000000	      0.00000000	      0.00000000	      0.00000000	      0.00000000	      0.00000000	      0.00000000
      0.14000000	      0.00000000	     -0.00000000	      0.00000000	      0.00000000	      0.00000000	      0.00000000	      0.00000000	      0.00000000	      0.00000000	      8.39880276	     33.82593536	   -674.77227783	   -365.19635847	  -1062.18636034	      0.00000000	      0.00000000	      0.00000000	     13.36767493	     -8.08538153	    -11.21685339	   -139.93482971	   -302.85173475	   -795.05484782	      0.00000000	      0.00000000	     -0.00000000	   -844.28221973	      0.00000000	     -0.00000000	      0.00000000	      0.00000000	      0.00000000	      0.00000000	      0.00000000	      0.00000000	      0.00000000
      0.15000000	      0.00000000	     -0.00000000	      0.00000000	      0.00000000	      0.00000000	      0.00000000	      0.00000000	      0.00000000	      0.00000000	      8.27683735	     32.92199326	   -674.87475586	   -366.04343471	  -1062.47878060	      0.00000000	      0.00000000	      0.00000000	    417.42432608	     -6.94513035	    -10.87635456	   -137.66683960	   -304.64842857	   -796.68794371	      0.00000000	      0.00000000	     -0.00000000	   -996.06114164	      0.00000000	     -0.00000000	      0.00000000	      0.00000000	      0.00000000	      0.00000000	      0.00000000	      0.00000000	      0.00000000
      0.16000000	      0.00000000	     -0.00000000	      0.00000000	      0.00000000	      0.00000000	      0.00000000	      0.00000000	      0.00000000	      0.00000000	      7.93973541	     31.57207298	   -673.78839111	   -366.29366569	  -1061.31956758	      0.00000000	      0.00000000	     -0.00000000	    291.42166556	     -6.08862305	    -10.93897671	   -136.81639099	   -308.52242236	   -796.17074450	      0.00000000	      0.00000000	     -0.00000000	   -906.21310296	      0.00000000	     -0.00000000	      0.00000000	      0.00000000	      0.00000000	      0.00000000	      0.00000000	      0.00000000	      0.00000000
      0.17000000	      0.00000000	     -0.00000000	      0.00000000	      0.00000000	      0.00000000	      0.00000000	      0.00000000	      0.00000000	      0.00000000	      7.55608606	     30.44033813	   -673.92034912	   -366.97984144	  -1061.69997793	      0.00000000	      0.00000000	      0.00000000	    273.03187864	     -5.08268830	    -10.52330926	   -134.69526672	   -310.83837829	   -798.98866240	      0.00000000	      0.00000000	     -0.00000000	   -785.55799470	      0.00000000	     -0.00000000	      0.00000000	      0.00000000	      0.00000000	      0.00000000	      0.00000000	      0.00000000	      0.00000000
      0.18000000	      0.00000000	     -0.00000000	      0.00000000	      0.00000000	      0.00000000	      0.00000000	      0.00000000	      0.00000000	      0.00000000	      7.50045776	     29.95458412	   -673.84051514	   -366.76344484	  -1062.10031509	      0.00000000	      0.00000000	      0.00000000	    383.34900965	     -4.17602345	    -10.52345335	   -135.63771057	   -314.77572812	   -794.83853349	      0.00000000	      0.00000000	     -0.00000000	   -941.45936777	      0.00000000	     -0.00000000	      0.00000000	      0.00000000	      0.00000000	      0.00000000	      0.00000000	      0.00000000	      0.00000000
